PathFileType	4	(X/Y/Z)	c:/Users/goper/Files/vsCode/490R/osim_files/C07/C07_Fast_04.trc
DataRate	CameraRate	NumFrames	NumMarkers	Units                	OrigDataRate	OrigDataStartFrame	OrigNumFrames
250.00	250.00	5	36	mm	250.0	1384	2214
                Frame#	Time	LPSIS			LASIS			LTH1			LTH2			LTH3			LTH4			LLFE			LMFE			LSH1			LSH2			LSH3			LSH4			LLMAL			LMMAL			LCAL			LMTP5			LTOE			LMTP1			RPSIS			RASIS			RTH1			RTH2			RTH3			RTH4			RLFE			RMFE			RSH1			RSH2			RSH3			RSH4			RLMAL			RMMAL			RCAL			RMTP1			RTOE			RMTP5		
		X1	Y1	Z1	X2	Y2	Z2	X3	Y3	Z3	X4	Y4	Z4	X5	Y5	Z5	X6	Y6	Z6	X7	Y7	Z7	X8	Y8	Z8	X9	Y9	Z9	X10	Y10	Z10	X11	Y11	Z11	X12	Y12	Z12	X13	Y13	Z13	X14	Y14	Z14	X15	Y15	Z15	X16	Y16	Z16	X17	Y17	Z17	X18	Y18	Z18	X19	Y19	Z19	X20	Y20	Z20	X21	Y21	Z21	X22	Y22	Z22	X23	Y23	Z23	X24	Y24	Z24	X25	Y25	Z25	X26	Y26	Z26	X27	Y27	Z27	X28	Y28	Z28	X29	Y29	Z29	X30	Y30	Z30	X31	Y31	Z31	X32	Y32	Z32	X33	Y33	Z33	X34	Y34	Z34	X35	Y35	Z35	X36	Y36	Z36

1384	5.53200	-2628.90234	963.68787	324.04956	-2763.03052	946.85889	453.84045	0.00000	0.00000	0.00000	0.00000	0.00000	0.00000	-2817.79639	597.82941	453.11169	-2849.01025	704.69836	485.10907	-2856.25757	486.89410	429.34995	-2902.54858	498.78439	319.38177	0.00000	0.00000	0.00000	0.00000	0.00000	0.00000	-2886.71387	310.68842	399.48804	-2890.04126	267.86499	384.41211	-2853.65771	97.58134	285.09366	-2906.94238	131.24806	242.54010	-2826.18994	46.69831	209.16028	-2948.87061	36.90864	361.91409	-3027.69849	48.16523	345.11682	-3025.04590	38.77872	285.26035	0.00000	0.00000	0.00000	0.00000	0.00000	0.00000	0.00000	0.00000	0.00000	-2853.81836	720.43835	132.43130	0.00000	0.00000	0.00000	-2912.78638	728.86774	182.43037	-2865.06250	466.42014	141.68388	0.00000	0.00000	0.00000	0.00000	0.00000	0.00000	0.00000	0.00000	0.00000	0.00000	0.00000	0.00000	-2708.10400	337.02155	98.84467	-2523.25049	284.01984	92.54767	-2533.79077	251.85545	166.84045	-2454.30664	308.86414	135.22218	-2502.71045	103.71677	152.15727	-2528.17065	95.34779	109.81847	-2503.86450	133.98811	48.12601
1385	5.53600	-2632.14795	964.27924	324.66525	-2765.11353	947.25177	455.69724	0.00000	0.00000	0.00000	0.00000	0.00000	0.00000	-2818.95703	601.28784	463.03403	-2850.44727	704.45886	486.50275	-2857.23047	486.68890	430.32892	-2903.52686	498.64630	320.32260	0.00000	0.00000	0.00000	0.00000	0.00000	0.00000	-2887.46753	310.51205	400.11386	-2890.67847	267.64395	384.96094	-2853.66919	97.64111	285.29987	-2907.08667	131.36520	242.57750	-2827.10376	47.17533	211.00548	-2948.14160	36.23365	362.04153	-3027.71338	48.13953	345.12256	-3025.04175	38.81611	285.28644	0.00000	0.00000	0.00000	0.00000	0.00000	0.00000	0.00000	0.00000	0.00000	-2860.65137	721.29340	135.49532	-2875.86084	640.44427	133.88995	-2921.13965	730.71057	186.05019	-2875.92944	467.91446	146.21869	0.00000	0.00000	0.00000	0.00000	0.00000	0.00000	-2694.68701	356.70346	88.67081	0.00000	0.00000	0.00000	-2718.74243	338.75833	101.47070	-2532.84985	285.76373	93.58994	-2543.59912	253.22820	167.38673	-2463.75415	309.59393	135.48793	-2514.43530	104.73955	151.38487	-2542.17017	97.80017	109.60832	-2516.31055	136.07620	47.64185
1386	5.54000	-2635.27563	964.81287	325.55920	-2767.14331	947.58685	457.57452	0.00000	0.00000	0.00000	0.00000	0.00000	0.00000	-2820.26001	601.42120	464.10660	-2851.98706	704.32361	487.91135	-2858.39941	486.63092	431.29440	-2904.51562	498.49478	321.24744	0.00000	0.00000	0.00000	0.00000	0.00000	0.00000	-2888.18262	310.43701	400.60602	0.00000	0.00000	0.00000	-2853.69702	97.71071	285.45758	-2907.69385	132.16783	242.50328	-2827.13940	47.27330	210.95045	-2948.83838	36.82536	361.98715	-3026.73315	47.59410	345.02353	-3025.04810	38.85272	285.30066	0.00000	0.00000	0.00000	0.00000	0.00000	0.00000	0.00000	0.00000	0.00000	-2867.37256	722.13043	138.57336	-2883.59497	641.52997	137.34036	-2927.34399	732.30438	189.63783	-2885.57251	469.48267	150.48679	0.00000	0.00000	0.00000	-2726.21899	409.73035	98.25567	-2703.78833	357.85367	91.11658	0.00000	0.00000	0.00000	-2725.88867	340.13086	102.89407	-2543.99097	287.42642	93.99443	-2553.38013	254.50768	167.93471	-2473.43677	310.03043	135.87315	-2526.45850	105.59705	150.50029	-2553.25220	98.65146	108.62689	-2529.06909	138.03223	47.04643
1387	5.54400	-2638.06836	965.25031	326.40646	-2769.08838	947.97400	459.46591	0.00000	0.00000	0.00000	0.00000	0.00000	0.00000	-2821.37988	601.41010	465.05331	-2853.50342	704.27606	489.24756	-2859.56348	486.09961	431.61307	-2905.29736	498.39627	322.06955	0.00000	0.00000	0.00000	0.00000	0.00000	0.00000	-2888.81787	310.32263	401.13760	-2891.71167	267.40692	385.87219	-2854.46436	93.74186	282.07501	-2907.76270	132.29437	242.63756	-2827.16675	47.29482	210.98650	-2948.14624	36.27153	362.16718	-3026.72241	47.51503	345.01941	-3025.01001	38.86163	285.31665	-2681.14551	975.08350	232.84473	0.00000	0.00000	0.00000	0.00000	0.00000	0.00000	0.00000	0.00000	0.00000	-2891.19849	642.58398	140.94188	-2933.45264	733.94366	193.35616	-2893.95996	471.03314	154.64383	0.00000	0.00000	0.00000	-2736.34863	411.53113	101.36736	-2713.61841	358.87112	93.74200	0.00000	0.00000	0.00000	-2733.23682	337.98734	106.23773	-2554.53516	288.73172	94.74841	0.00000	0.00000	0.00000	-2483.08545	310.44763	136.03111	-2538.34985	106.36226	149.80608	-2566.04883	100.10056	108.09928	-2541.84863	139.75764	46.67869
1388	5.54800	-2640.96533	965.77307	326.88306	-2770.91895	948.44220	461.34494	0.00000	0.00000	0.00000	0.00000	0.00000	0.00000	-2822.64673	601.45941	466.04953	-2854.90063	704.14740	490.58331	-2860.65479	486.06216	432.49075	-2906.06543	498.31433	322.91498	0.00000	0.00000	0.00000	0.00000	0.00000	0.00000	-2889.24023	310.22986	401.62570	-2892.17676	267.36890	386.23688	-2854.49829	93.99082	282.44852	-2907.81396	132.39188	242.77165	-2827.17896	47.35879	210.95015	-2948.01855	36.67142	362.82379	-3026.72998	47.48781	345.03226	-3024.98755	38.88262	285.37390	-2684.83325	975.58582	233.95125	-2871.64673	949.64728	228.22090	0.00000	0.00000	0.00000	-2880.88086	724.08508	145.09496	-2898.63867	643.67926	144.68187	-2939.44775	735.63165	197.16438	-2904.45752	472.79541	159.58096	0.00000	0.00000	0.00000	-2746.53418	413.34152	104.60539	-2724.03101	360.69882	96.39539	0.00000	0.00000	0.00000	-2742.38574	339.67191	108.64160	-2565.24731	289.81870	95.55307	-2573.12866	256.17831	169.30783	-2492.79639	310.57550	136.12077	-2550.69214	106.67686	148.99519	-2578.96899	101.43679	107.69012	-2554.77832	141.20247	46.35427
